# xmcd CD database file
#
# Track frame offsets:
#	187
#	27785
#	47867
#	74922
#	97992
#
# Disc length: 1348 seconds
#
# Revision: 0
# Processed by: cddbd v1.5.1PL2 Copyright (c) Steve Scherf et al.
# Submitted via: CDex 1.51
#
DISCID=41054205
DTITLE=林田健司 - VOX
DYEAR=1992
DGENRE=JPop
TTITLE0=Long Distance Love
TTITLE1=Wonderful You Are
TTITLE2=Everybody Needs Love
TTITLE3=Dance On The Stardust
TTITLE4=Everybody Needs Love - Reprise -
EXTD=YEAR: 1992
EXTT0=
EXTT1=
EXTT2=
EXTT3=
EXTT4=
PLAYORDER=
